<svg width="23" height="15" viewBox="0 0 23 15" fill="none" xmlns="http://www.w3.org/2000/svg">
<path fill-rule="evenodd" clip-rule="evenodd" d="M0 7.5C0 7.27902 0.0865376 7.06709 0.240575 6.91083C0.394613 6.75457 0.603534 6.66678 0.821376 6.66678H20.1944L15.0246 1.42419C14.8704 1.26773 14.7837 1.05553 14.7837 0.834269C14.7837 0.613007 14.8704 0.400807 15.0246 0.244352C15.1788 0.0878957 15.388 5.21311e-09 15.6061 0C15.8243 -5.21311e-09 16.0334 0.0878958 16.1877 0.244352L22.7587 6.91008C22.8352 6.98748 22.8959 7.07943 22.9373 7.18066C22.9787 7.28188 23 7.3904 23 7.5C23 7.6096 22.9787 7.71812 22.9373 7.81934C22.8959 7.92057 22.8352 8.01252 22.7587 8.08992L16.1877 14.7556C16.0334 14.9121 15.8243 15 15.6061 15C15.388 15 15.1788 14.9121 15.0246 14.7556C14.8704 14.5992 14.7837 14.387 14.7837 14.1657C14.7837 13.9445 14.8704 13.7323 15.0246 13.5758L20.1944 8.33322H0.821376C0.603534 8.33322 0.394613 8.24543 0.240575 8.08917C0.0865376 7.93292 0 7.72098 0 7.5Z" fill="#DEDCDB"/>
</svg>
