<svg width="19" height="12" viewBox="0 0 19 12" fill="none" xmlns="http://www.w3.org/2000/svg">
<path fill-rule="evenodd" clip-rule="evenodd" d="M0 6C0 5.82321 0.0714876 5.65367 0.198736 5.52866C0.325985 5.40366 0.498571 5.33343 0.678528 5.33343H16.6823L12.4116 1.13935C12.2842 1.01418 12.2126 0.844425 12.2126 0.667415C12.2126 0.490406 12.2842 0.320646 12.4116 0.195481C12.539 0.0703166 12.7119 4.17049e-09 12.892 0C13.0722 -4.17049e-09 13.245 0.0703166 13.3724 0.195481L18.8007 5.52807C18.8638 5.58998 18.914 5.66354 18.9482 5.74452C18.9824 5.82551 19 5.91232 19 6C19 6.08768 18.9824 6.17449 18.9482 6.25548C18.914 6.33646 18.8638 6.41002 18.8007 6.47193L13.3724 11.8045C13.245 11.9297 13.0722 12 12.892 12C12.7119 12 12.539 11.9297 12.4116 11.8045C12.2842 11.6794 12.2126 11.5096 12.2126 11.3326C12.2126 11.1556 12.2842 10.9858 12.4116 10.8607L16.6823 6.66657H0.678528C0.498571 6.66657 0.325985 6.59635 0.198736 6.47134C0.0714876 6.34633 0 6.17679 0 6Z" fill="#9E573D"/>
</svg>
