<svg width="38" height="37" viewBox="0 0 38 37" fill="none" xmlns="http://www.w3.org/2000/svg">
<path d="M19.0051 30.5848L33.372 18.0099C34.4354 17.0799 36.1549 17.0799 37.2069 18.0099C38.2703 18.9399 38.259 20.4438 37.2069 21.3738L20.9282 35.6208C19.8988 36.5211 18.2472 36.5409 17.1838 35.69L0.79192 21.3837C0.260231 20.9187 4.57764e-05 20.3053 4.57764e-05 19.7017C4.57764e-05 19.0982 0.260231 18.4848 0.79192 18.0198C1.8553 17.0898 3.5748 17.0898 4.62687 18.0198L19.0051 30.5848Z" fill="#EDE8C8"/>
<path d="M19.0051 13.9598L33.372 1.38491C34.4354 0.454899 36.1549 0.454899 37.2069 1.38491C38.2703 2.31492 38.259 3.81877 37.2069 4.74878L20.9282 18.9958C19.8988 19.8961 18.2472 19.9159 17.1838 19.065L0.79192 4.75867C0.260231 4.29367 4.57764e-05 3.68026 4.57764e-05 3.07674C4.57764e-05 2.47322 0.260231 1.85981 0.79192 1.3948C1.8553 0.464794 3.5748 0.464794 4.62687 1.3948L19.0051 13.9598Z" fill="#EDE8C8"/>
</svg>
