<svg width="27" height="27" viewBox="0 0 27 27" fill="none" xmlns="http://www.w3.org/2000/svg">
<path d="M19.4689 16.6813H18.2903L17.8726 16.2785C19.3346 14.5778 20.2148 12.3699 20.2148 9.96801C20.2148 4.61227 15.8735 0.270996 10.5178 0.270996C5.16208 0.270996 0.820801 4.61227 0.820801 9.96801C0.820801 15.3237 5.16208 19.665 10.5178 19.665C12.9197 19.665 15.1276 18.7848 16.8283 17.3228L17.2311 17.7405V18.9191L24.6904 26.3634L26.9132 24.1406L19.4689 16.6813ZM10.5178 16.6813C6.80311 16.6813 3.8045 13.6827 3.8045 9.96801C3.8045 6.25331 6.80311 3.25469 10.5178 3.25469C14.2325 3.25469 17.2311 6.25331 17.2311 9.96801C17.2311 13.6827 14.2325 16.6813 10.5178 16.6813Z" fill="#3A2216"/>
</svg>
