<?xml version="1.0" encoding="UTF-8"?>
<svg id="Layer_1" data-name="Layer 1" xmlns="http://www.w3.org/2000/svg" viewBox="0 0 595.28 841.89">
  <defs>
    <style>
      .cls-1 {
        fill: #dedcdb;
      }
    </style>
  </defs>
  <path class="cls-1" d="m398.43,636.42c-8.73-1.56-17.51-2.19-26.38-1.94-2.99.09-7.84-6.1-8.47-10.67-1.72-12.63-3.81-25.27-.07-37.93.26-.89-.05-1.96-.63-3.07-1.76,5.61-3.27,11.33-5.36,16.81-2.03,5.33-2.87,10.87-3.96,16.38-1.05,5.3-4.12,8.85-9.4,10.28-.93.25-2.13.54-2.92.19-7.86-3.53-15.38.83-23.07.9-3.55.03-7.18.93-10.23-2.17,2.65-1.84,4.82.65,7.27.44,7.13-.6,14.18-1.7,21.06-3.53,2.17-.58,4.43-.35,6.58-1.48,3.87-2.04,6.69-4.54,6.73-9.24.04-4.89-.48-9.74,2.58-14.25,1.24-1.83,1.31-4.67,1.35-7.06.12-7.06.81-14.04,2.02-21,.85-4.89-1.04-6.58-5.83-4.98-1.54.51-3.29.97-4.66,1.11-6.76.67-11.23,2.72-9.51,10.77.3,1.38-.71,2.66-2.66,3.77,2.41-6.08,2.5-11.37-4.32-14.84,7.17-.94,12.78-4.93,19.28-6.5,2.09-.5,2.35-2.24.43-3.63-3.71-2.68-8.01-4.07-12.35-2.79-2.75.81-4.44,1.07-6.69-1.06-2.17-2.06-5.05-3.38-7.67-4.93-.97-.57-2.22-.72-1.88-2.35.31-1.5,1.47-1.04,2.34-1.05,4.49-.08,2.95-2.43,1.6-4.46-1.76-2.65-4.62-3.56-7.93-3.94,3.71-3.19,7.77-2.32,11.63-2.7,3.13-.31,5.06,1.87,7.58,2.67,2.28.72,4.9.36,7.47.48.23-2.23-1.13-3.53-1.93-5.05-1.15-.68-2.46-1.36-1.68-3,.46-.95,1.56-1.14,2.56-1.22,1.5-.12,1.93.99,2.29,2.12.68,2.19,1,4.71,3.98,4.97,1.05.09,1.99-.55,2.16-1.65.46-2.94-1.67-4.45-3.58-6.01-1.28-1.04-2.61-2.03-3.75-3.21-1.93-2.01-3.73-2.57-5.67.07-1.02,1.38-2.34,2.49-4.08.81,3.29-3.96,2.49-7.97-2.14-11.5-4.88-3.73-10.32-5.28-17.77-4.04,4.47-3.74,8.18-2.54,11.74-1.89,1.4.26,2.77,1.54,4.05,1.39,2.1-.25,4.92,2.1,5.7.4.8-1.75-.37-4.57-1.6-6.73-3.44-6.01-9.03-9.37-14.87-12.46,2.15-1.89,4.37.03,6.51-.33-2.85-1.6-7.89-2.43-3.58-7.6,3.7,4.55,7.63,4.09,11.72.57-1.83-4.01-8.5-3.67-8.78-8.85,9.95,4.14,16.42,14.59,28.69,14.24,4.33-.12,7.7-1.81,10.99-4.3-1.58-2.28-4.18-2.06-6.08-2.32-6.41-.86-11.6-5.54-18.21-5.46-1.88.02-1.96-1.8-2.19-2.75-.38-1.58.79-1.04,1.84-.8,1.46.33,1-.8.51-1.28-3.36-3.35-5.12-8.46-10.81-9.34-1.58-.24-2.95-2.06-3.71-3.77-1.69-3.81-4.46-3.72-7.01-1.41-5.08,4.59-12.03,7.01-15.18,13.92-1.77,3.89-6.17,4.72-9.95,5.29-3.09.47-4.6,2.09-5.88,4.49-1.61,3.03-1.73,5.49,2.23,6.69,4.41,1.35,7.76,6.07,13.25,4.3.06-.02.83,2.18,1.38,3.64-4.4-1.62-9.09-.54-13.24-2.78-1.22-.66-1.95.68-2.56,1.73-2.92,5.02.45,11.26,6.61,12.03,1.8.22,3.65.07,5.48.04,6.19-.1,13.23-1.86,14,7.84-1.07.5-1.57-.73-2.1-1.65-2.02-3.52-4.46-5.62-8.75-3.34-.74.39-1.94.11-2.88-.11-9.16-2.14-16.06,3.14-16.36,12.51-.23,7.28,1.85,14.46.98,21.75-1.41,11.84-2.56,23.73-3.51,35.58-1.12,13.88-4.77,27.82-.61,41.95,1.61,5.46,4.28,8,10.2,7.54-3.15,2.22-8.85,1.11-9.94-2.17-2.99-8.99-6.5-17.9-4.27-27.86.96-4.26.7-8.84.96-13.24.87-14.65,2.72-29.25,2.32-43.99-.19-7.02-3.41-12.3-7.32-17.51-1.47-1.96-2.44-1.51-3.32.65-1.28,3.16-2.43,6.3-2.47,9.78-.14,13.95-2.32,27.7-3.87,41.53-.82,7.36-1.2,14.84-1,22.24.24,8.88-1.12,17.17-5.84,24.76-1.18,1.89-1.5,3.58.28,4.39-12.63,9.39-26.81,11.72-41.94,8.96,5.96-.57,11.84-1.63,17.63-3.31,14.57-4.21,19.5-17.07,25.41-28.86,1.14-2.28.66-5.62.29-8.38-1.11-8.2-.62-16.3-.14-24.54.75-12.82,1.38-25.66,2.13-38.49.39-6.71-1.91-9.43-8.48-9.93-5.19-.39-10.51-.7-15.67.84-.8.24-1.9.2-2.1,1.01-1.32,5.27-5.47,3.94-9.02,4.02-.66.02-1.33,0-2.2,0,9.01-5.81,17.52-12.2,28.98-11.07,2.27.22,5.66-.15,6.26-2.09.68-2.19-2.63-2.95-4.39-4.13-2.95-1.96-6.15-3.65-8.8-5.96-3.93-3.43-7.84-4.94-12.68-2.1-2.11,1.24-3.47-1.07-5.29-1.65,1.59,0,3.19,0,4.78,0,1.96,0,3.56-1.46,3.54-2.86-.05-2.96,2.35-5.78.83-8.58-.69-1.27-2.72-.63-4.15-.31-4.39.97-8.81,1.86-13.14,3.07-1.08.3-1.42.13-1.97-.79,3.7-1.9,8.24-1.9,11.53-4.98-1.25-.83-2.55-.84-3.39-.31-1.42.91-3.32,1.39-3.97.27-.61-1.03.21-2.99.59-4.49.41-1.64,1.87-.94,2.88-.98,4.75-.2,9.48.1,14.25-.91,5.03-1.06,10.14.59,15.14,1.24,6.59.86,9.76-2.14,8.42-8.84-1.55-7.77-5.11-13.63-13.04-16.22-2.42-.79-4.63-2.19-6.96-3.32-1.68,1.29-.14,3.29-1.4,4.79-1.22-4.59-3.79-8.67-3.44-13.56.04-.64-.14-1.85-.3-1.86-5.12-.45-4.09-4.84-4.73-7.8-1.21-5.6-6.04-6.44-10.03-8.47.82-1.17,2.11-1.51,3.36-1.92,5.54-.43,7.38.71,9.44,5.86,4.53,11.35,12.25,16.09,24.22,14.87,1.7-.17,3.7-.5,3.61-2.58-.09-1.89-2.13-1.78-3.58-1.88-3.48-.24-6.98.15-10.45-.29-.97-.12-2.26-.3-2.37-1.41-.17-1.58,1.37-1.75,2.43-1.81,5.69-.31,10.99-2.57,16.62-3.23,3.3-.38,6.2-5.94,4.74-8.81-.95-1.86-2.83-1.51-4.42-1.48-4.68.08-9.31-.28-13.78-1.74-1.14-.37-2.91-.66-2.59-2.39.24-1.3,1.78-1.37,2.91-1.44,4.68-.28,8.91-2.08,13.9-3.57-4.2-2.97-8.3-4.15-12.67-3.83-5.67.42-11.04-1.2-16-3.18-4.31-1.72-7.36-6.01-10.61-9.5-2.39-2.57-4.71-4.56-8.39-4.57-1.68,0-3.41-.55-4.54-1.81-3.74-4.19-6.81-8.82-8.6-14.21,2.9-1.8,3.66,1.14,4.68,2.48,1.43,1.88,1.97,4.42,3.31,6.4,1.85,2.74,3.83,4.25,8,4.41,6.28.24,13.21,1.79,17.26,7.67,2.18,3.17,4.89,4.54,8.32,4.88,3.82.39,6.92-2.38,7.24-6.06.19-2.09-1.04-2.21-2.48-1.67-1.49.57-2.96,1.27-4.41,1.91-3.32,1.48-4.69-.05-5.81-2.95,3.26-.25,6.56-.16,8.16-3.93.67-1.58,2.33-1.82,3.74-.55,4.3,3.86,8.7,2.62,13.06.24,2.12-1.16,4.11-2.56,6.15-3.85,4.36-2.75,3.14-10.13-1.79-11.83-4.5-1.56-9.33-1.03-13.86-2.26-6.89-1.87-13.49-4.69-21.07-5.81,2.1-2.09,3.11.67,4.61-.18,2.19-1.23-1.41-2.57.26-3.77,3.43,2.2,6.6,3.29,10.7.38,2.45-1.74,6.25-1.07,9.53.17-4.04-9.46-11.81-13.55-21.4-15.19,6.39,0,12.49.87,17.04,5.49,2.6,2.64,4.52,5.87,7.85,7.89,1.42.86,2.68,1.09,4.14,1.03,2.87-.1,4.02-1.97,2.47-4.36-6.22-9.56-14.6-15.54-26.43-15.62-2.49-.02-5.02-.25-7.46.11-1.13.17-4.72-2.23-3.3,2.23.18.56-.75.67-1.48.29-2.56-1.36-5.21-2.56-7.76-3.92-.61-.32-1.32-.76-.71-1.9,1.16-2.16-.12-4.34-.26-7,3.79,9.02,11.44,7.16,18.36,7.17,3.72,0,7.22,1.26,11.08,2.04,0-2.7-1.95-3.39-3.29-4.74,8.17,1.5,14.52,6.87,22.02,11.21,1.06-7.23-.91-12.78-5.6-17.47-.1-.1-.38-.04-.46-.14-5.8-7.32-13.68-10.76-22.39-13.59-4.88-1.58-10.04-4.7-12.13-10.43-.94-2.59-4.17-1.43-5.56-3.56,3.6-.92,6.35-.26,8.51,3.03,1.59,2.43,4.13,3.98,7.02,5.1-3.54-5.27-9.39-8.8-11.49-15.39,3.09,1.01,5.43,3.55,7.4,5.62,9.06,9.51,20.62,12.2,32.91,13.35.98.09,2.07-.04,2.92.34,3.47,1.56,4.46-1.25,5.01-3.31.55-2.05,1.23-4.85-2.6-5.46-8.22-1.3-16.4-2.64-24.81-.95,3.99-2.64,8.65-3.73,13.1-4.37,3.51-.51,4.45-2.03,5.68-4.81.91-2.05.18-7.43,5.55-4.53.57.31,1.38-.2,1.15-1.07-.26-1-.98-1.65-2.07-1.8-4.82-.67-9.62-1.57-14.46-1.95-3.66-.29-7.64-3.06-11.03.85-.07.08-.44.06-.47-.01-2.55-5.51-8.04-1.36-12.54-4.05,4.11-1.57,6.73-5.43,11.4-2.09,1.01.72,2.91.25,4.4.23,8.2-.13,16.35.23,24.41,1.92,2.7.57,4.91-1.4,4.39-4.11-.73-3.79-2.16-7.46-2.66-11.26-.52-3.97-3.14-4.23-5.64-3.31-3.67,1.34-7.12,1.05-10.46-.3-9.38-3.78-18.57-3.86-27.45,1.18-3.73,2.12-5.16-.67-7.31-2.77,6.55.47,11.89-1.56,16.89-5.74,2.19-1.83,5.73-2.2,9.26-.91,8.48,3.09,17.08,2.45,25.52-.7,2-.75,3.05-1.74,2.99-4.23-.14-6.33-4.41-10.34-12.34-12.84-9.3-2.93-18.07-7.34-26.82-11.66-.35-.17-.48-.78-.72-1.19,8.16.89,16.21,2.24,24.13,4.58,8.05,2.37,15.4-2.19,17.57-10.4,1.39-5.27-1.43-7.95-6.75-6.87-4.98,1.01-9.88.86-14.11-2.78-2.1-1.81-4.94-2.29-7.42-1.29-2.46,1-4.7.6-8.03.51,3.68-1.07,6.37-2.21,9.17-2.59,3.34-.45,6.57-.77,9.54,2.31,2.89,3,6.62.1,9.72-.69,4.01-1.03,7.13-6.71,6.97-10.9-.17-4.32-3.73-6.2-7.44-3.93-2.2,1.35-4.39,2.7-6.6,4.03-2.84,1.71-5.44,1.23-7.9-.76.31-1.71,1.78-1.55,2.27-1.08,1.79,1.71,3.4.3,4.32-.54,4.4-4.01,9.68-6.41,14.98-8.81,1.85-.84,3.09-2.08,2.2-4.09-.84-1.91-2.66-3.64-4.7-2.57-2.38,1.25-3.82-.44-5.71-.6,2.1-1,4.4-.18,6.53-1.45,2.53-1.49,2.61-3.23,1.27-5.25-1.35-2.03-3.17-3.73-4.57-5.73-3.52-5.03-7.83-6.3-13.55-3.73-4.17,1.87-7.95-.44-11.89-1.99,8.74,1.94,13.86-5.13,20.62-7.87,1.36-.55,1.33-1.93.81-3.41-.99-2.82-.91-5.6.18-8.55,1.25-3.38,2.28-3.54,2.99-5.72.6-1.85.23-3.02-1.1-8.58-2.39-10.01-2.3-10.87-2.04-10.98.46-.19,1.82,1.75,2.72,3.52,2.69,5.26,1.3,8.95,4.17,11.03.57.41,1.37.99,2.04.77,2.73-.91.74-14.11-1.53-25.79.26-1.47.63-3.07,1.02-3.06.98.03.22,10.11,3.21,11.05,2.87.9,7.38-7.16,8.53-6.45.71.44-.46,3.86-1.53,6.13-1.21,2.57-2.07,3.17-2.81,4.6-2.58,4.99.03,12.86,2.47,13.15,2.45.29,5.29-6.98,5.7-8.04,1.54-3.94,1.71-7.2,4.45-12.82.98-2.01,1.3-2.29,1.43-2.25.82.28-3.79,14.97-2.81,15.32.58.21,2.65-4.84,3.32-4.6.51.18-.36,3.22-.77,7.15-.38,3.71-.2,6.83.04,9.02-.85,1.02-1.17,1.93-1.26,2.6-.59,4.21,5.54,7.59,1.8,12.28,2.31-1.1,4.17.06,6.08.07,3.39.02,2.49,2.7,3.24,4.53,1.05,2.56,3.52,3.08,5.86,2.38,1.53-.46,2.84-1.29,4.53-.49-4.47,4.69-10.23,7.31-15.53,10.56-6.38,3.92-7.88,10.09-6.88,16.53.85,5.48,4.65,9.21,10.48,10.94,5.06,1.5,9.44-.43,11.61-3.73,4.28-6.52,10-9.85,16.91-12.69,7.16-2.94,14.9-5.51,19.74-12.4.65-.93,1.34-.55,2.05.05,1.36,1.15.07,1.77-.55,2.21-4.47,3.17-8.66,6.75-13.64,9.17-4.98,2.41-9.8,4.99-13.67,9.16-2.7,2.92-4.04,6.21-4.19,10.06-.21,5.37.06,5.53,5.36,3.9.18.24.54.51.5.7-.29,1.33-1.75,4.54-1.96,4.62-2.16.83-4.27,1.77-6.46,2.5-8.83,2.94-17.59,6.08-25.93,10.24-3.26,1.62-5.99,3.94-7.58,7.38-1.86,4.01-.97,6.49,3.2,7.27,3.06.58,6,1.42,9.49.32,5.66-1.78,11.72-2.25,17.61-3.29,5.02-.88,8.37-3.75,10.01-9.6.6,6.22-2.06,9.19-6.03,11.85-7.51,5.03-15.91,3.81-24,4.77-3.67.44-5.69,2.24-6.15,6.19-.51,4.36.5,8.57,2.35,12.29,1.31,2.62,3.57,5.27,7.43,4.58,3.81-.69,7.51.55,11.19,1.12,4.28.66,7.71.08,10.7-3.28,2.13-2.4,4.16-5.14,8.16-5.9-.73,3.02-2.33,5.36-3.97,7.5-4.05,5.28-3.73,6.32,3.06,7.75.54.55.58,1.09,0,1.64-9.32-5.18-18.86-4.15-28.39-.8-4.16,1.47-7.97,3.5-9.53,8.17-2.03,6.07.46,10.21,6.89,10.73,5.06.41,10,.09,14.6-2.79,4.36-2.73,9.29-4.29,14.4-5.09,1.26-.2,2.71-.44,3.63,1.32-2.21,2.42-5.2,1.66-7.86,1.54-3.51-.15-6.45,1.2-7.93,3.96-2.44,4.58-6.3,4.86-10.64,5.17-6.08.43-12.33.54-17.13,5.41-2.25,2.29-3.15,4.79-3,7.94.15,3.07,1.51,4.33,4.56,4.64,3.54.36,6.72-1.3,10.23-1.13,8.66.43,17.15,2.81,25.93,2.15,2.4-.18,4.48-.44,6.18-2.21.85.47.5,1.43.87,2.1-1.62,2.83.23,3.97,2.39,5.06,7.43,3.74,15.11,5.32,23.34,3.06,1.22-.33,2.61-.05,4-.05-1.47,3.07-5,.79-6.72,2.89-6.04,2.93-11.92,1.06-17.76-.71-3.33-1.01-6.41-2.72-9.81-3.56-.48-.12-.97-.28-1.46-.27-10.37.17-20.72.82-31.08,1.26-2.81.12-6.35,1.18-5.85,5.32.48,3.99,3.5,5.56,7.14,5.52,8.63-.11,17.19.77,25.76,1.51.52.17.97.46,1.35.84-.46,3.44-3.45,3.7-5.85,4.4-6.56,1.92-13.37,2.46-20.15,3.1-5.5.52-6.54,1.57-6.67,7.13-.07,2.99.03,5.99-.02,8.98-.05,2.95,1.25,4.29,4.21,4.13,1.84-.1,3.69-.19,5.4-.82,9.2-3.35,18.8-5.48,27.82-9.34,1.33-.57,2.88-1.78,4.06-.25,1.31,1.7-.18,3.13-1.28,4.32-2.69,2.91-6.2,4.48-9.97,5.31-3.35.74-6.16,2.17-8.74,4.46-4.44,3.94-9.59,6.51-15.59,7.18-1.81.2-3.61.58-5.39.98-3.24.74-3.88,3.37-4.11,6.1-.26,3.2,2.39,3.16,4.42,3.52,7.85,1.42,15.81,1.8,23.74,2.57,1.76.17,4.31-.33,4.75,1.73.49,2.3-2.05,2.66-3.76,3.02-3.1.65-3.99,2.03-2.11,4.81.56.83.82,1.82.73,2.85-.09.52-.36.94-.79,1.24-1.05.38-2.07.09-2.76-.62-4.05-4.21-8.21-3.13-12.57-.52-2.57,1.53-5.39,2.62-8.37,3.03-3.31.46-4.87,2.33-5.36,5.54-.71,4.66.76,6.22,5.43,5.31,3.41-.67,6.76-1.63,10.09-2.64,2.38-.72,4.77-1.48,7.27-1.57,2.14-.08,5.15-.3,5.28,2.31.13,2.55-2.92,1.86-4.73,2.13-1.79.27-3.63.22-5.46,1.25,2.42,4.01,7.09,6.19,8.49,11.06.49,1.71,3.11,1.56,4.88,1.88,3.18.57,6.25-.29,9.37-.75,1.93-.08,3.8.04,5.29,1.49,4.77,4.72,5.32,10.87,5.64,17.06.31,5.84.58,6.17,6.34,6.31,1.49.04,3-.06,4.47.2,1.29.23,2.92.37,3.01,2.03.11,2.06-1.77,2.04-3.17,2.39-1.08.27-2.33-.15-3.7,1.25,3.65,1.68,7.27.88,10.75,1.1,4.94.2,9.87-.36,14.81-.08,3.57.2,5.54,1.95,5.51,5.55-.04,4.72,1.08,9.58-1.42,14.05.31,2.37-.85,4.87.75,7.14,3.13,4.43,7.27,5.35,11.84,2.46,1.07-.68,1.75-2.01,3.29-1.83.8.08,1.46.39,1.88,1.11.21,2.77.59,3.72,4.35,3.32,6.65-.72,13.14-.87,18.71-5.22.56-.44,1.76-.06,2.96-.06q-5.83,7.09,3.07,14.13c.54.56.58,1.11,0,1.67-8.01-5.85-17.21-5.07-26.39-4.71-.06,1.85,1.19,3.13,2.69,4.86-1.35-.11-2.63.09-2.82-.28-3.36-6.44-9.33-4.52-14.64-4.7-1.33-.05-2.65.02-3.98-.01-3.88-.08-4.49,1.89-3.19,5.07,3.28,7.96,10.75,12.92,19.47,12.92,1.82,0,3.65,0,5.47,0,5.57,0,10.67-3.79,12.72-9.47q1.63,3.87-2.21,7.89c-.98,1.03-2.67,1.88-1.98,3.63.75,1.87,2.58.77,3.9.9,2.3.22,4.63.16,6.95.21.65.46,1.04,1.07,1.11,1.88-.41.63.95,2.19.08,1.75-10.32-5.29-21.31-1.79-31.94-2.75-2.8-.25-5.64-.04-8.47-.04-2.38,0-4.5.49-5.52,3,1.05,2.89,3.35.26,4.87,1.11h10.52c-.61,2.8-2.81,1.84-4.37,1.83-2-.02-3.67,1.11-3.71,2.56-.05,1.81,2.1,1.36,3.51,1.52,4.38.48,8.52.57,11.78,4.94,3.03,4.05,7.7,1.76,11.57.1,2.74-1.17,5.35-2.63,8.18-3.74-1.28,1.46-1.92,3.56-4.39,3.71-1.5.09-2.78,1.41-2.8,2.43-.04,1.66,2.08,1.72,3.27,2.35,1.53.81,3.99-.74,4.98,1.72-6.99-.47-13.9-1.3-20.86.35-1.9.45-2.81,1.27-4.15,2.61-3.86,3.86-9.23,3.53-14.15,3.1-2.42-.21-5.68-1.56-6.93.05-1.64,2.12-.38,5.21,1.25,7.69,2.59,3.94,6.8,5.8,10.79,6.42,6.24.96,12.62,1.35,18.92,2.2,2.73.36,5.59.41,7.59-2.32,2.13,5.38,2.78,5.52,6.72,2.03,1.83-1.62,3.89-2.99,5.61-4.72,1.71-1.72,3.12-3.74,4.72-5.7,1.88,1.07,1.04,5.03,4.94,4.05-6.89,3.33-10.53,9.54-15.4,14.47-1.59,1.61-2.99,2.4.75,3.54,6.13,1.87,5.99,2.32,10.98-.02.59,4.62.04,4.77-3.85,4.83-8.08.13-15.56-3.59-23.67-3.2-3.12.15-4.02,1.33-3.95,4.23.05,2,.31,3.12,2.68,2.89,2.45-.23,4.11,1.17,6.17,3.34-2.42.33-2.95-1.72-4.53-1.42-4.45.85-7.13-1.09-8.39-5.44-.39-1.34-1.89-1.5-3.33-1.57-4.39-.2-8.51-1.56-12.47-3.42-3.5-1.64-5.19-.96-5.96,2.85-.83,4.12-2,8.31-1.92,12.44.21,11.24-2.27,22.26-2.21,33.49.02,4.22,1.31,7.95,2.68,11.74.8,2.21,2.29,3.4,4.86,4.17,6.03,1.79,12,.99,17.4,3.7,1.41.71,2.45,1.47,3.04,1.95Z"/>
  <path class="cls-1" d="m379.56,470.72c-.01-4.8-.14-9.6,0-14.4.08-2.8-.97-3.81-3.75-3.75-5.45.13-10.9.01-16.36,0-.09-.75.24-1.47.9-1.55,5.74-.66,7.97-4.92,10.57-9.34,2.2-3.74,1.19-5.94-1.87-7.81-10.02-6.1-19.96-12.5-32.4-12.13-1.39-1.83-3.41-.84-5.14-1.16,1.71-5.78,8.08-8.33,13.13-5.17,2.25,1.41,4.33,3.09,6.78,4.18,2.42,1.08,3.82,1,3.3-2.33-.99-6.37-3.47-11.76-9.04-15.42-2.78-1.82-5.51-3.73-7.9-6.06-.72-.7-1.41-1.62-1.16-2.63.3-1.2,1.55-1.27,2.48-1.05,3.34.79,5.74-2.77,9.14-1.86-1.25-1.14-4.43-.25-3.87-2.89.5-2.36,2.89-1.59,4.66-1.38,2.95.34,4.76,2.12,6.91,4.18,4.63,4.43,8.06,10.73,15.02,12.01,1.93.35,5.28,2.06,6.32-1.55.98-3.4-2.41-8.92-5.53-9.54-1.95-.39-3.99-.15-5.94-.61-1.28-.3-2.92-.42-3.11-2.01-.21-1.8,1.6-1.82,2.75-2.25,2.01-.76,4.28-.69,6.2-1.78,1.05-.59,2.01-1.38,1.85-2.71-.18-1.48-1.47-1.66-2.64-1.74-2.51-.17-4.99-.43-7.18-1.78-1.51-.93-2.72-2.37-2.13-4.12.56-1.67,2.42-1.52,3.91-1.33,2.31.29,4.59.69,6.93.67,3.95-.03,4.51-1.83,3.02-5.12-3.31-7.32-9.28-11.03-16.79-12.8-2.1-.5-4.31-.43-6.36-1.24-2.25-1.33-3.21-2.87-.82-4.96,3.66-.66,7.4.35,11.12-1.15,2.55-1.03,4.5,1.26,5.98,3.36,2.19,1.35,4.42,2.66,6.57,4.07,2.41,1.58,4.47,1,6.64-.59,2.28-1.68,2.02-3.51.78-5.58-.08-.13.01-.34-.04-.49-1.01-2.88-1.26-6.59-3.24-8.43-2.18-2.02-5.6.81-8.56.75-.24,0-.48-.42-1.1-1.02,5.88-4.76,11.9-8.34,20.24-5.51-.87-2.41-2.04-2.12-2.86-1.98-5.35.89-7.98-1.77-9.62-6.57-1.45-4.27-3.54-8.31-2.42-13.92.98,4.47,2.32,7.83,6.18,9.31.31.12.68.12.94.29,1.37.87-.67,4.38,1.88,3.59,3.53-1.08,7.61.01,10.66-2.76,1.24-1.13,1.76-2.5,1.94-4.19.6-5.81.34-10.92-6.73-12.82-2.95-.79-5.08-3.5-6.44-5.92-1.67-2.96-3.72-3.15-6.45-3.06-3.4.12-6.81.03-10.26-.65,6.48-2.14,12.81-5,19.84-2.83,1.22.37,1.87,1.14,2.2,2.73.53,2.55,2.64,4.27,5.39,3.69,2.93-.61,5.76-2.18,6.29-5.39.52-3.19.82-6.86-3.87-7.68-.57-.56-.57-1.11,0-1.67,1-3.08-.52-5.6-4.13-6.08-2.61-.34-5.35-.32-7.95.07-2.22.33-4.86,3.25-5.33-1.76-.03-.34-1.97-.5-3.03-1.04,5.82-.15,11.51-.85,17.11-2.31,1.08-.28,2.44.16,2.31-1.69-.13-1.92-1.62-1.08-2.6-1.36-2.81-.8-5.3,1.84-8.59.56,2.14-4.08,5.79-6.08,9.65-7.54,4.97-1.87,9.38-4.09,10.89-9.78.24-.91,1.12-1.64,2.34-2.38-2.4,5-.53,7.62,3.56,10.21,3.08,1.95,5.58,5.01,7.67,8.27,1.22,1.9,2.22,3.5.66,5.44-1.1,1.36-.24,1.98.52,2.91,2.02,2.44,4.68,3.97,8.27,5.36-3.93,2.18-6.84-.88-9.86-.06-1.79.49-4.88-1.06-5.26,1.01-.51,2.82-1.54,6.21,1.07,8.95,1.31,1.37,3.27,2.28,3.61,4.43-.83.91-1.47.58-2.14-.06-.65-.61-1.25-1.72-2.26-.36-.81,1.09.32,1.52.79,1.83,3.17,2.06,4.11,6.65,8.57,7.31,1.93.29,1.27,2.4.95,3.28-1.83,5.06,2.63,6.26,5.13,8.51.82.73,3.27-.64,2.91,2.02-.37,2.74-3.13,1.95-4.69,2.91-1.31.81-2.8-.17-3.25-2-.9-3.69-2.91-6.69-6.62-7.77-9.28-2.7-15.44,6.29-14.35,14.22.97,7.01.83,6.68,7.88,4.97,1.98-.48,4.43-2.09,6.91-.37.89.61,2.29.12,2.78-1.4-.7-.9-1.72-.37-2.57-.45-1.01-.1-2.1.04-1.99-1.46.06-.81-.02-2.03.43-2.31.76-.48,1.84-.42,2.7.43,1.87,1.82,3.54,3.88,5.98,5.06.72.35,1.18,1.18.47,2.07-.57.7-1.1.58-2.03.47-2.94-.36-5.95-.14-8.92-.3-2.75-.15-4.87.47-5.64,3.47-.92,3.59,2.01,3.68,4.09,4.52.42.17.89.21,1.98.44-3.69,1.29-6.46.18-9.15-1-1.98-.87-3.38-.34-3.81,1.59-.45,2.05.89,2.8,2.89,3.03,7.3.85,14.56,1.83,21.93,2.04,3.76.11,7.2-.96,11.23-2.23-1,3.13-3.4,2.85-6.6,3.99,7.21,2.42,7.65,11.53,16.63,11.27-4.97,1.16-9.84.01-11.64-3.18-1.72-3.06-3.98-3.96-7.13-3.97-2.41,0-5.53-3.45-6.83,1.66-.2.78-1.36.06-1.99-.52-5.74-5.23-11.85-4.74-18.18-1.18-4.74,2.67-6.93,7.92-5.39,13,.32,1.05.94,1.86,1.96,1.99,6.86.84,12.81,3.91,18.88,7.66-2.28,1.78-4.78,2.84-7.42,2.32-3.83-.76-4.89,1.5-5.4,4.33-1.82,10.19-4.82,19.73-12.79,27.07-2.44,2.25-1.84,5.8-.63,8.29,1.09,2.24,9.73,1.24,11.43-1.27,4.33-6.41,10.58-9.77,17.73-11.67,5.93-1.58,9.65-6.02,13.85-9.89,2.25-2.07,4.83-3.58,7.83-4.53-.95,1.6-2.15,2.79-3.74,3.84-3.21,2.13-6.23,4.51-7.71,8.37-1.86,4.84-6.67,5.25-10.71,6.43-3.18.93-6.3,1.52-8.18,4.85,4.2,3.66,9.63,1.92,14.36,3.18,6.03,1.61,12.28,1.07,18.46.96.56,1.13-.14,1.59-1.03,1.94-8.83-1.56-17.79,1.58-26.64-.78-3.4-.91-6.29.8-8.83,3-3.68,3.18-7.89,5.08-12.8,4.9-2.37-.09-3.72,1.09-4.59,2.98-1.88,4.07-4.3,7.79-4.26,12.75.02,3.08.04,4.21,3.39,4.37,8.58.42,17.18,2.32,25.62-.99.74-.29,2.05-.23,2.22.57,1.34,6.19,4.55,2.6,7.1,1.22,1.55,1.58.18,3.49,1.34,5.07,1.69-.24,3.44-1.82,5.34-.48-3.02,4.74-14.58,8.21-19.68,5.5-4.18-2.23-8.37-3.29-13.1-3.05-2.86.15-5.53.15-7.59,3.16,4.8,1.97,10.29,1.65,15.41,2.69,5.52,1.12,11.49,1.49,16.45,3.71,5.83,2.62,10.7-.94,17.1-.34-5.98,2.12-10.91,3.94-15.89,5.59-1.53.51-3.79,1.04-4.6-.46-2.14-3.94-5.62-3.45-8.93-3.21-4.67.33-9.02-.97-13.34-2.28-1.27-.38-3.04-1.38-3.65-.63-3.67,4.44-9.97,2.41-13.89,5.97Z"/>
  <path class="cls-1" d="m335.61,265.52c0-.55,0-1.09,0-1.64,4.11,1.87,8.77-.07,12.9,1.81-4.35,1.27-8.64,1.53-12.9-.17Z"/>
  <path class="cls-1" d="m338.44,306.65c-.29-.7-.58-1.4-.87-2.1.91-2.06,3.37-2.05,5.16-4.65-.44,3.87-3.36,4.63-4.29,6.75Z"/>
  <path class="cls-1" d="m396.48,284.85v1.67c-1.66.03-3.4.76-5.21-.75,1.59-1.88,3.53-.81,5.21-.92Z"/>
  <path class="cls-1" d="m443.38,421.46c.34-.65.69-1.29,1.03-1.94,1.62,1.21,3.35,2.35,4.15,5.09-2.08-1.27-3.63-2.21-5.18-3.15Z"/>
  <path class="cls-1" d="m397.31,479.6c-.82-.04-1.51-.29-1.88-1.11.88-1.26,1.65-2.65,3.97-2.94-.81,1.56-1.45,2.81-2.1,4.05Z"/>
  <path class="cls-1" d="m423.53,511.63c-.82-.36-1.07-1.05-1.11-1.88h5.31c-1.85.83-3.02,1.35-4.2,1.88Z"/>
  <path class="cls-1" d="m426.41,493.43c0-.56,0-1.11,0-1.67.29.07.75.05.83.22.43.93,2.61.15,1.9,1.92-.07.18-1.78-.3-2.73-.48Z"/>
  <path class="cls-1" d="m224.86,422.79c-.83,1.02-2.01.8-3.11.88-3.2.1-3.74,2.73-4.71,4.96.03,1.4-.92,1.6-2,1.64-1.38-.27-1.79-1.28-1.95-2.53-.06-.51-.07-1.69-.92-.54-2.38,3.24-5.47,1.55-8.23,1.16-3.65-.52-7.29-.64-10.92-.36-5.44.43-8.29,3.28-8.97,8.64,2.15,0,3.43-1.97,5.38-2.33.82-.15,1.7-.38,2.29.41.6.8.12,1.6-.33,2.28-1.67,2.51-4.15,4.3-6.01,6.64-1.26,1.58-2.69,3.45-1.7,5.4.96,1.9,3.03.02,4.54.42,6.52,1.76,11.46-.87,15.91-5.4,3.41-3.47,3.35-4.35-1.15-5.85-.79-.26-1.61-.42-2.36-.79-1.62-.81-2.83-2-2.16-3.93.69-2,2.34-1.32,3.79-.98,4.36,1.02,8.4,3.12,12.86,3.81,4.12.59,7.94,1.78,10.73,5.15,2.28,1.19,4.61,2.31,6.83,3.6.82.48,1.64,1.3.74,2.43-.8,1-1.72,1.71-2.82.38-5.56-6.74-11.71-4.64-17.94-1.22-5.5,3.02-11.07,5.94-16.43,9.2-1.97,1.19-3.83.57-5.73.73-4.13.36-8.69,3.99-9.27,8.62-.47,3.76-2.14,8.45,3.3,10.69-1.25,1.13-2.49,2.24-3.71,3.38-2.15,2.01-.48,4.02.73,5.06,3.27,2.83,10.75-.67,11.35-5.1.78-5.75,2.24-11.12,8.7-14.95-3.36,4.75-4.45,9-2.74,13.74,1.01,2.8,2.15,3.76,5.12,2.09,5.71-3.22,8.3-8.97,11.9-13.91,1.14-1.56,1.96-3.34,3.04-4.94,2.72-4.03,2.88-8.05-.07-12.32,2.5,1.64,4.5,4.32,8.09,1.02-.56,2.83,1,4.9-1.18,6.71-1.11.92-2.6,2.18-1.29,3.98,1.21,1.66,3.19,1.25,4.6.8,3.81-1.21,7.49-2.85,11.39-4.39.87,1.93.02,2.77-2,3.59-7.17,2.89-13.49,7.28-19.78,11.68-2.05,1.43-3.51,3.56-4,5.99-1.92,9.41-8.07,12.79-17.1,13.42-5.74.4-11.23,2.84-17.12,3.16-3.23.18-5.09,2.14-4.58,5.99.43,3.27.29,6.66.04,9.97-.34,4.56,2.4,6.09,6.11,6.69,4.38.71,8.76.13,11.64-3.38,5.87-7.19,13.61-6.96,21.74-6.15-9.69,1.14-17.11,5.83-22.39,13.94-.74,1.14-1.84,1.87-3.36,1.63-1.6-.26-3.17.02-4.85-.49-3.12-.95-7.75-1.88-9.27.33-1.64,2.38-.63,6.71-.47,10.18.07,1.51,1.49,1.88,2.97,2,14.88,1.11,29.77,2.57,44.55-1,.58-.14,1.25.08,2.81.2-15.38,8.03-30.51,13.09-48.53,11.15,5.91,5.19,9.19,11.53,15.1,15.49.35.23.46.44.33.65-.13.2-.25.3-.38.3-5.68-1.05-8.15-6.21-12.11-9.46-.98-.8-1.69-2.73-3-2.14-1.37.62-1.94,2.4-1.84,4.09.19,3.27-1.86,6.34-.84,9.68-.02.91-.49,1.38-1.39,1.27-.29-.04-.48-.18-.56-.23-.8-.49-1.96.29-2.41.09-1.48-.68,1.56-13.66.9-17.72-.08-.46-.31-1.73-1.23-2.26-.31-.18-.72-.25-1.29-.15-1.87.34-.86,1.82-1.2,2.77-5.67,15.98-7.31,32.59-8.02,49.39-.27,6.52-1.13,13.02-1.99,19.5-.63,4.71-4.65,8.46-9.38,9.28-1.11.19-2.29.56-3.36.39-9.89-1.62-16.16,6.17-24.23,9.26-.72.28-1.18.35-2.33-.6,5.04-2.41,8.07-7.09,12.69-9.65,15.63-8.65,23.86-21.42,24.94-39.61.6-10.11.37-20.18.71-30.26.16-4.7-2.15-6.55-6.58-5.16-4.27,1.34-8.43,3.05-12.58,4.74-1.41.57-2.71,1.91-2.81-.98-.04-1.2-1.03-1.12-1.82-1.07-6.81.42-3.7-4.9-5.72-8.05,1.45.17,2.01.14,2.04.26,2.32,7.78,5,8.55,12.13,3.87,3.6-2.37,7.34-4.68,11.82-5.09,1.33-.12,2.37-.72,2.4-1.99.03-1.3-1.09-1.75-2.34-2.04-7.31-1.65-14.44-1.44-21.45,1.49-4.31,1.8-8.71,2.02-13.36.86-5.06-1.26-10.15-3.35-15.54-1.45,1.01-2.29,2-3.66,5.26-3.11,3,.5,6.28.71,9.05,1.62,3.36,1.11,6.14.3,8.97-.62,4.92-1.59,5.25-3.5,1.62-7.27-2.31-2.41-4.45-4.63-1.79-8.31,2.46-3.4-.94-3.63-2.87-4.14-5.55-1.48-11.29-2.32-16.46-5.06-.75-.4-1.37-.83-1.51-1.99,6.23,1.01,12.17,3.35,18.57,3.08,2.27-.1,3.49-.46,3.1-2.96,5.31,1.55,10.75.65,16.14.89,1.49.07,3.05-.14,4.44.27,1.89.55,3.71,3.49,5.32-.38,1.74-4.2,1.1-6.97-1.99-8.94-1.52-.97-3.08-.95-4.7-.94-8.68.08-17.17-1.82-25.79-2.49,8.77-.68,17.36-3.43,26.48-1.06-.17-2.82-1.55-3.62-2.94-4.46-2.43-1.47-4.23-3.49-5.57-6.02-1.74-3.27,1.08-1.9,2.45-2.36-2.17-2.76-3.97-4.78-7.91-2.25-3.02,1.94-5.61.27-7.68-3.85,1.95-.47,4.28,3.53,5.47.39,1.08-2.84-2.46-4.25-4.57-4.68-2.55-.51-3.32-2.44-4.82-3.84,6.55-.3,9.32,5.56,13.8,8.82,1.72-6.97-1.55-13.63-6.91-14.56,2.14-4.97,2.18-5.04-3.15-7.6-3.65-1.75-6.29-4.15-7.75-8.15-2.34-6.37-6.18-11.67-12.61-14.64-1.81-.83-3.61-1.42-5.61-1.35l-.27-.39.27-.39c.97-.04,1.95-.18,2.92-.09,1.3.12,2.48-.4,2.82-1.45.49-1.52-1.04-1.87-2-2.7-1.87-1.62-4.78-2.07-5.66-4.83,4.08,1.61,7.69,4.6,13.3,3.93-3.71,1.96-4.59,3.84-1.71,6.32,6.59,5.65,8.42,15.79,17.74,18.95.54.18.67,1.71.9,2.64.51,2.03,2.18,2.85,3.65,1.96,2.52-1.52,3.67-.67,4.89,1.52,1.18,2.11,2.57,2.67,4.83.77,1.95-1.64,4.49-2.07,6.4.57,1.43,1.99,3.05,1.28,4.7.36.71.53.96,1.29,1.15,2.11.33,1.36.19,3.39,2.48,2.75,2.08-.59,2.76-2.29,2.14-4.33-1.06-3.51-3.57-6.27-4.86-9.32-.69,2.78,3.71,6.27-1.03,8.92-.7-6.21-2.8-11.53-8.71-14.73-1.92-1.04-1.72-1.51.34-2.83,1.03-.66.74-1.69.18-2.45-1.31-1.76-3.14-2.7-5.28-3.23-7.04-1.72-14.17-2.29-21.39-1.97-2.35.1-4.57.06-5.59-3.09,5.96,1.78,11.88,1.14,17.74,1,6.12-.14,11.97,1.01,17.79,2.54,2.62.69,5.22,1.41,7.2-1.11,1.87-2.38.94-4.67.03-7.38-3.57-10.64-12.75-11.36-21.54-12.96-3.12-.57-7.03,1.56-9.45-3.01,8.62.15,16.78-.72,23.94,5.34,4.64,3.93,8.03,1.82,8.97-4.43.43-2.86,2.41-6.55.26-8.28-1.87-1.51-5.68-.61-9.1-.81,1.85-1.18,3.94-.95,5.3-2.67,1.6-2.02,1.05-2.18-.93-3.21-6.81-3.53-14.42-3.8-21.58-5.85-1.75-.5-3.4-.96-5.16-2.97,5.11,1.05,9.55,1.96,14,2.88-3.22-4.61-10.25-2.48-12.9-8.33,8.7.8,17.15,1.6,25.61,2.33,1.76.15,3.56.52,3.54-2.53-.02-3.13-1.97-2.51-3.64-2.41-2.39.14-4.45-.27-6.28-1.99-3.12-2.94-7.58-2.21-11.22-3.91-2.73-1.27-5.55-2.29-8.01-4.09.96-.95,1.95-.78,2.93-.04,2.69,2.34,5.77,3.43,9.35,2.99.92-.11,2.25.46,2.61-.67.38-1.17.55-2.53-.65-3.66-2.17-2.04-4.17-4.25-6.32-6.33-1.98-1.92-3.27-4.03-2.64-7.11,3.06,1.19,3.34,6.19,7.25,5.51,1.66-.29,2.74-2.22,2.95-4.43.52,4.05,3.72,5,6.66,5.55,2.85.53,5.68.96,8.44,1.95,1.18.43,2.59.57,3.69-.56,1.36-1.4.63-2.61-.18-3.96-.93-1.56-1.33-3.32-1.02-5.17.73-1.22,2.16,1.73,2.45-.28.21-1.41-.73-2.55-2.54-1.95-1.85-2.54-3.83-4.62-7.48-3.93-3.04.58-4.57-2.12-5.75-3.97-2.69-4.2-8.68-6.51-7.65-12.89.04-.24.25-.46.76-1.32,2.5,8.3,9.09,6.93,15.12,7.31,3.73.24,5.38-1.33,6.07-4.71.38-1.87,1.08-3.67,1.58-5.52,1.29-4.74.55-5.79-4.19-6.89-2.3-.53-4.42-1.66-6.45-3.6.87-.17,1.3-.28,1.73-.33,6.33-.67,10.56-.2,8.15-9.76-.7-2.8-.73-5.48-.85-8.24-.2-4.9-3.02-7.69-7.94-8.03-2.74-.19-5.48-.6-8.2-.99-1.53-.22-3.97-.51-3.5-2.21.44-1.57,1.74-4.12,4.54-3.35,1.83.5,3.69,1.55,5.14-.55.51-.75.82-.24.92.03,1.56,4.35,7.23,4.44,8.88,8.57.85,2.13,2.47,3.39,4.15,4.68,1.28,1.23,2.65,2.34,4.05,3.43.44.78.68,1.64,1.06,2.44-.15,3.28,2.15,3.37,4.21,2.76,1.24-.36,2.33-.98,3.65-.63,1.54,1.66,1.47,3.89,2.11,5.87-2.98,9.07-1.21,13.03,11.8,17.5-3.03,2.74-5.65,1.27-8.33-.43-5-3.17-9.78-1.9-12.63,2.94-1.41,2.39-.96,4.05,1.08,5.43,6.49,4.39,9.91,5.87,17.02-1.02.55-.53,1.29-.87,1.94-1.29.98.23,1.56.86,1.81,1.82-3.84,6.13-9.7,8.15-16.53,7.97-2.44-.06-4.73.03-5.16,2.91-.49,3.23,2.44,3.69,4.45,4.04,7.63,1.31,13.21,6.29,19.37,10.26.29.91-.24,1.34-.96,1.67-3.17-.67-5.82-1.97-8.3-4.33-1.65-1.57-4.22-2.63-7.06-2.58-6.98.11-8.81,1.89-8.43,9.08,1.93,2.56,2.34,5.74,3.45,8.63.62,1.62,1.16,3.18,3.41,2.48,2.49-2.35,5.36-3.6,8.86-3.12,6.3.87,11.15-1.2,15.16-6.37,2.39-3.09,5.97-5.25,8.46-7.35-1.41,4.45-4.89,8.67-8.69,12.69-.96,3.28-4.09,4.07-6.52,5.64-2.33,1.5-5.13,2.2-7.76,4.62,2.08-.24,3.23-1.05,4.3-1.86,2.19-1.67,3.62-.07,5.26,1,1.9,1.23,1.47,2.79.64,4.32-1.06,1.95-2.38,3.36,1.06,4.78,2.82,1.17.16,2.61-.97,3.37-4.82,3.23-9.22,6.96-13.35,11-1.02,1-3.12,2.72.63,2.9,1.67.03,3.33-.02,4.98.25.47.07.94.19,1.4.31,2.04.71,4.27.24,6.32.95,2.53.82,3.49,3.21,4.99,5.06,1.16,1.43,2.78,2.15,4.44,2.8,2.61.82,5.22,1.06,7.8-.13,4.42-1.22,7.24-4.58,10.22-7.73.8-.57,1.67-.99,2.58-1.33,1.65-.58,3.31-1.09,5.09-1.07,1.25.09,2.48.24,3.17,1.51-.3,3.06-2.9,4.13-4.99,5.48-2.78,1.8-4.07,4.03-3.23,7.31Z"/>
  <path class="cls-1" d="m169.79,565.7c.26-1.18,3.11-2.1,4.35-1.13.96.76.6,2.37.24,5.72-.3,2.8-.27,5.62-.51,8.43-.28,3.37-.19,6.33,0,12.26.23,7.17.62,7.43.77,14.55.16,7.67-.32,6.23,0,8.94.4,3.35,1.14,5.66-.26,7.4-.74.92-2.04,1.65-2.81,1.28-.8-.39-.72-1.82-.77-4.85-.03-1.63-.09-3.8-.26-6.38.64-1.82,1.24-4.49.51-7.4-.58-2.29-1.45-2.65-2.04-5.11-.59-2.48.13-2.82.26-7.91.11-4.36-.41-4.78,0-8.17.15-1.28.33-2.08.51-4.09.28-3.14,0-2.98.26-4.6.55-3.63,1.93-4.55,1.28-6.38-.52-1.47-1.71-1.74-1.53-2.55Z"/>
  <path class="cls-1" d="m170.16,289.69c1.63-3.67,6.37-4.8,7.34-9.01,7.12-.63,9.13-6.78,12.48-11.52,1.69-2.39,3.98-3.23,7.21-1.89-2.8,3.02-4.01,6.67-7.88,9.2-2.91,1.9-5,6.22-7.24,9.6-.7,1.07-.67,2.3-1.99.88-.58-.62-1.31-2.07-1.51-.65-.15,1.12-1.27,1.3-1.09,1.89.3.99,1.36.34,2.08.47.78.14,1.67-.2,2.85,1.35-3.63,1.01-7.35-1.59-10.33.71-1.17.65-1.52-.26-1.94-1.03Z"/>
  <path class="cls-1" d="m164.05,273.99c-.17.97-.09,1.62-.73,2.38-3.3,3.95-7.68,6.91-10.38,11.41-.56.93-1.37.63-2.03-.04-.58-.59-1.38-1.39-.54-2.05,3.04-2.4,3.03-6.25,4.65-9.32,1.29-2.45,3.38-3.68,5.96-4.54,2.53-.84,2.69.73,3.07,2.16Z"/>
  <path class="cls-1" d="m174.3,271.44c-.6-1.06-2.1-1.38-1.96-.24.45,3.81-1.3,8.1,2.61,11.33,1.5,1.24-.13,3.08-1.14,4.59-.48-4.21-2.19-7.85-3.98-11.44-1.29-2.58-.96-5.07.39-7.4.96-1.65,2.25-3.89,4.53-2.45,1.87,1.17,3.34,3.21,1.21,5.62-.55.57-1.11.57-1.66,0Z"/>
  <path class="cls-1" d="m170.16,289.69l1.94,1.03c-3.14,1.73-4.4,4.47-4.26,7.96-.86,1.21.23,2.84-.88,3.99-2.19-.37-4.16-.97-3.95-3.83,2.38-3.05,4.77-6.1,7.15-9.15Z"/>
  <path class="cls-1" d="m180.85,306.71c0,.64,0,1.28,0,1.92-.92,1.36-1.84,2.72-2.76,4.08-2.82-1.19-1.96-3.72-2.11-5.87,1.33-.11,2.66-.22,3.99-.33.28.13.58.2.89.2Z"/>
  <path class="cls-1" d="m127.91,372.64c-.98.01-1.96.03-2.93.04-1.16-.41-2.32-.82-3.56-1.26q3.61-2.67,6.49,1.22Z"/>
  <path class="cls-1" d="m190.78,337.64c-.6-.61-1.21-1.21-1.81-1.82,1.03-.62,1.94-1.66,3.72-.84-.65.9-1.28,1.78-1.91,2.66Z"/>
  <path class="cls-1" d="m191.95,364.48c.32-.56.64-1.11.96-1.67.97-.16,2.8-.17,2.69.24-.49,1.75-2.07,1.82-3.65,1.43Z"/>
  <path class="cls-1" d="m191.94,562.4c0-.32.02-.63.04-.95,1.27.48,2.54.97,3.92,1.49-1.73,1.36-2.79.14-3.96-.55Z"/>
  <path class="cls-1" d="m328.52,327.62c2.64-1.98-.77-2.94-.96-4.73,6.16,2.32,8.25-5.53,13.76-5.15-.74,2.51-2.92,2.96-4.66,3.88-1.35.72-3.28,1.97-2.85,2.97,3.03,7.06-3.29,1.42-4.07,3.12-.41-.03-.82-.06-1.22-.09Z"/>
  <path class="cls-1" d="m352.56,353.48c-1.12.05-2.23.11-4.19.2,2.06-1.14-.31-4.41,3.19-3.87-1.44,1.71-.25,2.69,1,3.67Z"/>
  <path class="cls-1" d="m338.67,367c4.97,6.16,12.15,2.97,17.73,5.26-.04.3.03.74-.14.9-1.28,1.12-4.49-.24-4.24,2.1.23,2.13,3.01,1.22,4.74,1.38.79.07,1.58.12,3.18.23-7.63,3.11-15.36,3.77-21.45,8.67-1.75,1.4-3.97,1.31-4.45-1.93-.25-1.73-.73-3.51-1.5-5.07-1.42-2.89-1.36-4.57,2.45-4.95,3.81-.38,3.7-3.55,3.68-6.58Z"/>
  <path class="cls-1" d="m203.93,419.79c2.97-.1,5.95-.19,8.92-.29-2.92,1.94-5.91,1.48-8.92.29Z"/>
  <path class="cls-1" d="m222.75,411.59c.45-1.84.9-3.68,1.35-5.52.18,0,.36.02.54.03.11,1.5.22,2.99.33,4.49-.74.33-1.48.67-2.22,1Z"/>
  <path class="cls-1" d="m187.98,410.51c2.2.75,4.82-1.09,6.78,1.12-2.25-.44-4.81,1.03-6.78-1.12Z"/>
  <path class="cls-1" d="m229.74,409.58c1.28-1.91,3.55-.15,5.07-2.12-.06,2.05-.67,2.83-1.98,2.99-.82-1.03-2-.79-3.09-.88Z"/>
  <path class="cls-1" d="m181.85,410.58c2.06-1.5,4.12-1.48,6.19-.02-2.06,0-4.13.01-6.19.02Z"/>
</svg>