<svg width="21" height="20" viewBox="0 0 21 20" fill="none" xmlns="http://www.w3.org/2000/svg">
<g clip-path="url(#clip0_288_57)">
<path fill-rule="evenodd" clip-rule="evenodd" d="M18.6787 19.0129H1.65473C0.838734 19.0129 0.177734 18.4339 0.177734 17.7199V2.28187C0.177734 1.56887 0.838734 0.989868 1.65473 0.989868H18.6787C19.4937 0.989868 20.1547 1.56887 20.1547 2.28187V17.7199C20.1547 18.4339 19.4937 19.0129 18.6787 19.0129ZM3.63965 16.0438H6.58165V7.90679H3.63965V16.0438ZM5.13092 3.98506C4.12392 3.98506 3.46692 4.59206 3.46692 5.39106C3.46692 6.17106 4.10492 6.79706 5.09192 6.79706H5.11092C6.13692 6.79706 6.77492 6.17106 6.77492 5.39106C6.75692 4.59206 6.13692 3.98506 5.13092 3.98506ZM17.1898 11.3781C17.1898 8.87813 15.7378 7.71513 13.8028 7.71513C12.2408 7.71513 11.5428 8.50413 11.1518 9.05913V7.90613H8.20976C8.24876 8.67013 8.20976 16.0431 8.20976 16.0431H11.1518V11.4991C11.1518 11.2571 11.1708 11.0131 11.2488 10.8401C11.4608 10.3541 11.9458 9.85113 12.7578 9.85113C13.8228 9.85113 14.2478 10.5971 14.2478 11.6911V16.0431H17.1898V11.3781ZM11.1318 9.08741C11.1378 9.0784 11.1458 9.0694 11.1518 9.0604V9.08741H11.1318Z" fill="#EDE8C8"/>
</g>
<defs>
<clipPath id="clip0_288_57">
<rect width="20" height="20" fill="white" transform="translate(0.166992 -0.000610352)"/>
</clipPath>
</defs>
</svg>
