<svg width="12" height="16" viewBox="0 0 12 16" fill="none" xmlns="http://www.w3.org/2000/svg">
<path d="M2.00814 9.24871L2.01345 9.2565L6 15.1111L9.98655 9.2565L9.99186 9.24871L9.99745 9.24112C10.7363 8.23942 11.0723 6.87851 10.9871 5.52201C10.9019 4.16535 10.3992 2.8694 9.53258 1.98811C7.58079 0.003336 4.41955 0.00329118 2.46742 1.98811L2.00814 9.24871ZM2.00814 9.24871L2.00255 9.24112M2.00814 9.24871L2.00255 9.24112M2.00255 9.24112C1.26372 8.23942 0.92775 6.87851 1.01291 5.52201M2.00255 9.24112L1.01291 5.52201M1.01291 5.52201C1.09808 4.16536 1.60077 2.86942 2.4674 1.98813L1.01291 5.52201ZM3.73807 5.53787C3.73807 6.82578 4.76679 7.88404 6.05356 7.88404C7.34032 7.88404 8.36905 6.82578 8.36905 5.53787C8.36905 4.24996 7.34032 3.1917 6.05356 3.1917C4.76679 3.1917 3.73807 4.24996 3.73807 5.53787Z" stroke="#EDE8C8"/>
</svg>
