<svg width="17" height="12" viewBox="0 0 17 12" fill="none" xmlns="http://www.w3.org/2000/svg">
<path d="M8.63945 6.99467L8.63943 6.99464L8.63512 6.99757C8.60734 7.01644 8.56694 7.02997 8.5235 7.02997H8.52008C8.45651 7.02997 8.41576 7.00845 8.40255 6.9972L8.40186 6.99662L1.59985 1.23301H15.4358L8.9497 6.73553L8.94932 6.73586L8.66437 6.97821L8.66349 6.9788L8.63945 6.99467ZM10.5346 7.32234L15.5112 11.433H1.48388L6.47125 7.29178L7.46401 8.13352L7.4651 8.13444C7.75806 8.38103 8.13451 8.51106 8.52235 8.51106C8.9099 8.51106 9.28655 8.37993 9.57963 8.13273L9.58053 8.13196L10.5346 7.32234ZM5.32991 6.32451L0.9 10.0034V2.57074L5.32991 6.32451ZM16.1 2.60178V10.0086L11.6765 6.35425L16.1 2.60178Z" stroke="#EDE8C8" stroke-width="0.8"/>
</svg>
