<svg width="17" height="17" viewBox="0 0 17 17" fill="none" xmlns="http://www.w3.org/2000/svg">
<mask id="path-1-inside-1_288_78" fill="white">
<path d="M16.5028 12.9603C16.5367 13.2203 16.4575 13.4462 16.2655 13.6383L14.0113 15.8755C13.9096 15.9885 13.7768 16.0846 13.613 16.1636C13.4492 16.2428 13.2882 16.2936 13.13 16.3162C13.1187 16.3162 13.0848 16.3191 13.0282 16.3247C12.9718 16.3304 12.8984 16.3332 12.808 16.3332C12.5932 16.3332 12.2457 16.2965 11.7655 16.223C11.2853 16.1496 10.6978 15.9687 10.0029 15.6807C9.30787 15.3925 8.51976 14.9603 7.63844 14.3841C6.75711 13.8079 5.81923 13.0169 4.82488 12.0112C4.03392 11.2315 3.37856 10.4858 2.85878 9.77393C2.33901 9.06204 1.92093 8.40385 1.60455 7.79933C1.28813 7.19482 1.05085 6.64679 0.892655 6.15527C0.734463 5.66375 0.627118 5.24002 0.570621 4.88409C0.514124 4.52816 0.491525 4.2485 0.502825 4.04511C0.514124 3.84172 0.519774 3.72872 0.519774 3.70612C0.542373 3.54793 0.59322 3.38692 0.672316 3.22307C0.751412 3.05923 0.847457 2.92647 0.960451 2.82477L3.21469 0.570539C3.37288 0.412348 3.55367 0.333252 3.75706 0.333252C3.90395 0.333252 4.03389 0.375625 4.14689 0.46037C4.25988 0.545116 4.35593 0.649635 4.43502 0.773929L6.24858 4.2146C6.35028 4.39539 6.37852 4.59313 6.33333 4.80782C6.28813 5.0225 6.19208 5.2033 6.04519 5.35019L5.21468 6.18069C5.19208 6.20329 5.17231 6.24002 5.15536 6.29086C5.13841 6.34171 5.12994 6.38408 5.12994 6.41798C5.17514 6.65527 5.27683 6.92645 5.43502 7.23154C5.57062 7.50272 5.77965 7.83323 6.06214 8.22306C6.34463 8.61289 6.74575 9.06201 7.26553 9.57049C7.774 10.0903 8.22598 10.4942 8.62146 10.7824C9.01686 11.0704 9.34748 11.2824 9.61301 11.418C9.87855 11.5536 10.0819 11.6355 10.2232 11.6636L10.435 11.706C10.4576 11.706 10.4944 11.6975 10.5452 11.6806C10.596 11.6636 10.6327 11.6439 10.6554 11.6213L11.6214 10.6382C11.8249 10.4575 12.0621 10.3671 12.3333 10.3671C12.5255 10.3671 12.6779 10.4009 12.7909 10.4688H12.8078L16.079 12.401C16.3164 12.548 16.4576 12.7343 16.5028 12.9603Z"/>
</mask>
<path d="M16.5028 12.9603L17.4944 12.8309L17.49 12.7973L17.4834 12.7641L16.5028 12.9603ZM16.2655 13.6383L16.9699 14.3481L16.9727 14.3453L16.2655 13.6383ZM14.0113 15.8755L13.3069 15.1657L13.2869 15.1856L13.268 15.2065L14.0113 15.8755ZM13.613 16.1636L13.1786 15.2629L13.1781 15.2631L13.613 16.1636ZM13.13 16.3162V17.3162H13.201L13.2713 17.3061L13.13 16.3162ZM13.0282 16.3247L13.1274 17.3198L13.1277 17.3198L13.0282 16.3247ZM10.0029 15.6807L10.3859 14.7569L10.3859 14.7569L10.0029 15.6807ZM7.63844 14.3841L8.18566 13.5471L8.18564 13.5471L7.63844 14.3841ZM4.82488 12.0112L5.53604 11.308L5.52688 11.299L4.82488 12.0112ZM2.85878 9.77393L2.05115 10.3636L2.05117 10.3636L2.85878 9.77393ZM1.60455 7.79933L2.49054 7.33564L2.49052 7.3356L1.60455 7.79933ZM0.519774 3.70612L-0.470176 3.5647L-0.480226 3.63506V3.70612H0.519774ZM0.960451 2.82477L1.62942 3.56807L1.64896 3.55047L1.66756 3.53188L0.960451 2.82477ZM3.21469 0.570539L3.92179 1.27765V1.27765L3.21469 0.570539ZM4.43502 0.773929L5.31966 0.307643L5.30061 0.271511L5.27868 0.237053L4.43502 0.773929ZM6.24858 4.2146L5.36395 4.68088L5.37031 4.69296L5.37701 4.70486L6.24858 4.2146ZM6.04519 5.35019L5.33808 4.64308L5.33808 4.64308L6.04519 5.35019ZM5.21468 6.18069L5.92179 6.8878L5.92179 6.8878L5.21468 6.18069ZM5.12994 6.41798H4.12994V6.51237L4.1476 6.60509L5.12994 6.41798ZM5.43502 7.23154L6.32945 6.78432L6.32616 6.77775L6.32278 6.77122L5.43502 7.23154ZM7.26553 9.57049L7.9804 8.87123L7.9727 8.86336L7.96482 8.85565L7.26553 9.57049ZM8.62146 10.7824L8.03253 11.5906L8.03267 11.5907L8.62146 10.7824ZM10.2232 11.6636L10.4194 10.6831L10.4187 10.683L10.2232 11.6636ZM10.435 11.706L10.2387 12.6866L10.3359 12.706H10.435V11.706ZM10.5452 11.6806L10.8612 12.6294L10.8618 12.6292L10.5452 11.6806ZM10.6554 11.6213L11.3625 12.3284L11.3686 12.3222L10.6554 11.6213ZM11.6214 10.6382L10.9573 9.89059L10.932 9.91311L10.9082 9.9373L11.6214 10.6382ZM12.7909 10.4688L12.2763 11.3262L12.5138 11.4688H12.7909V10.4688ZM12.8078 10.4688L13.3164 9.60775L13.0811 9.46876H12.8078V10.4688ZM16.079 12.401L16.6055 11.5508L16.5966 11.5453L16.5876 11.5399L16.079 12.401ZM15.5112 13.0898C15.5099 13.0796 15.5083 13.0423 15.5251 12.9943C15.5414 12.9476 15.5626 12.9271 15.5583 12.9313L16.9727 14.3453C17.3746 13.9433 17.5702 13.4119 17.4944 12.8309L15.5112 13.0898ZM15.5611 12.9285L13.3069 15.1657L14.7157 16.5853L16.9699 14.3481L15.5611 12.9285ZM13.268 15.2065C13.2678 15.2068 13.2627 15.2124 13.2492 15.2222C13.2355 15.2321 13.213 15.2463 13.1786 15.2629L14.0474 17.0644C14.3062 16.9395 14.551 16.7707 14.7546 16.5445L13.268 15.2065ZM13.1781 15.2631C13.0943 15.3036 13.032 15.32 12.9887 15.3262L13.2713 17.3061C13.5444 17.2672 13.804 17.1819 14.0479 17.0641L13.1781 15.2631ZM13.13 15.3162C13.0554 15.3162 12.9569 15.3269 12.9288 15.3297L13.1277 17.3198C13.1405 17.3185 13.1513 17.3174 13.1603 17.3166C13.1695 17.3157 13.1759 17.3152 13.1802 17.3148C13.1823 17.3146 13.1834 17.3145 13.1838 17.3145C13.1842 17.3145 13.1832 17.3146 13.181 17.3147C13.179 17.3148 13.1742 17.3151 13.1674 17.3154C13.1639 17.3156 13.1591 17.3157 13.1533 17.3159C13.1477 17.316 13.1397 17.3162 13.13 17.3162V15.3162ZM12.9291 15.3297C12.9185 15.3307 12.8814 15.3332 12.808 15.3332V17.3332C12.9153 17.3332 13.0251 17.33 13.1274 17.3198L12.9291 15.3297ZM12.808 15.3332C12.6756 15.3332 12.3933 15.3075 11.9168 15.2345L11.6143 17.2115C12.0982 17.2856 12.5109 17.3332 12.808 17.3332V15.3332ZM11.9168 15.2345C11.547 15.178 11.0422 15.029 10.3859 14.7569L9.61992 16.6044C10.3533 16.9085 11.0236 17.1212 11.6143 17.2115L11.9168 15.2345ZM10.3859 14.7569C9.76584 14.4999 9.03398 14.1017 8.18566 13.5471L7.09121 15.221C8.00555 15.8188 8.84991 16.2852 9.61993 16.6044L10.3859 14.7569ZM8.18564 13.5471C7.37975 13.0202 6.49637 12.2794 5.53598 11.3081L4.11378 12.7143C5.14209 13.7543 6.13447 14.5956 7.09123 15.2211L8.18564 13.5471ZM5.52688 11.299C4.76498 10.548 4.14739 9.84295 3.6664 9.18422L2.05117 10.3636C2.60972 11.1286 3.30287 11.9151 4.12288 12.7234L5.52688 11.299ZM3.66642 9.18425C3.1679 8.50147 2.77846 7.88577 2.49054 7.33564L0.718553 8.26303C1.0634 8.92194 1.51012 9.62261 2.05115 10.3636L3.66642 9.18425ZM2.49052 7.3356C2.19268 6.76655 1.98079 6.27215 1.84457 5.84891L-0.0592597 6.46163C0.120908 7.02144 0.383594 7.62308 0.71857 8.26306L2.49052 7.3356ZM1.84457 5.84891C1.69599 5.38724 1.60408 5.01603 1.55826 4.72732L-0.417014 5.04085C-0.349848 5.464 -0.22706 5.94025 -0.0592597 6.46163L1.84457 5.84891ZM1.55826 4.72732C1.50579 4.3968 1.49583 4.19883 1.50129 4.10058L-0.495636 3.98964C-0.512776 4.29816 -0.477545 4.65951 -0.417014 5.04085L1.55826 4.72732ZM1.50129 4.10058C1.51131 3.92012 1.51977 3.76499 1.51977 3.70612H-0.480226C-0.480226 3.68747 -0.479567 3.67796 -0.480418 3.69839C-0.480959 3.71136 -0.481864 3.73084 -0.483216 3.75788C-0.485903 3.81163 -0.490021 3.88858 -0.495636 3.98964L1.50129 4.10058ZM1.50972 3.84755C1.51593 3.80413 1.53239 3.74167 1.57287 3.65782L-0.228235 2.78832C-0.345947 3.03216 -0.431179 3.29173 -0.470176 3.5647L1.50972 3.84755ZM1.57287 3.65782C1.58958 3.6232 1.60391 3.60054 1.6139 3.58674C1.62371 3.57318 1.62932 3.56815 1.62942 3.56807L0.291487 2.08148C0.0650142 2.2853 -0.10357 2.53009 -0.228235 2.78832L1.57287 3.65782ZM1.66756 3.53188L3.92179 1.27765L2.50758 -0.136568L0.253345 2.11766L1.66756 3.53188ZM3.92179 1.27765C3.92442 1.27502 3.90782 1.29207 3.86974 1.30873C3.82983 1.32619 3.78899 1.33325 3.75706 1.33325V-0.666748C3.26068 -0.666748 2.83272 -0.461703 2.50758 -0.136568L3.92179 1.27765ZM3.75706 1.33325C3.73308 1.33325 3.69701 1.32957 3.65466 1.31576C3.6119 1.30182 3.57517 1.28158 3.54689 1.26037L4.74689 -0.33963C4.45352 -0.559655 4.11104 -0.666748 3.75706 -0.666748V1.33325ZM3.54689 1.26037C3.55935 1.26971 3.57414 1.28374 3.59136 1.3108L5.27868 0.237053C5.13771 0.0155257 4.96042 -0.179483 4.74689 -0.33963L3.54689 1.26037ZM3.55039 1.24021L5.36395 4.68088L7.13321 3.74831L5.31966 0.307643L3.55039 1.24021ZM5.37701 4.70486C5.36951 4.69153 5.36015 4.66836 5.35609 4.63992C5.35215 4.61237 5.35568 4.5975 5.35478 4.60181L7.31188 5.01383C7.40391 4.57667 7.34805 4.12947 7.12016 3.72434L5.37701 4.70486ZM5.35478 4.60181C5.35011 4.62395 5.34527 4.6334 5.34428 4.63527C5.34349 4.63676 5.34243 4.63873 5.33808 4.64308L6.7523 6.05729C7.04423 5.76536 7.22907 5.40715 7.31188 5.01383L5.35478 4.60181ZM5.33808 4.64308L4.50758 5.47359L5.92179 6.8878L6.7523 6.05729L5.33808 4.64308ZM4.50758 5.47359C4.32477 5.6564 4.24364 5.86375 4.20668 5.97463L6.10404 6.60709C6.0992 6.62163 6.08712 6.65519 6.06337 6.69929C6.04035 6.74205 5.99659 6.813 5.92179 6.8878L4.50758 5.47359ZM4.20668 5.97463C4.17309 6.07539 4.12994 6.23283 4.12994 6.41798H6.12994C6.12994 6.48194 6.12222 6.53017 6.11687 6.55689C6.11132 6.58465 6.10571 6.6021 6.10404 6.60709L4.20668 5.97463ZM4.1476 6.60509C4.21679 6.96834 4.36166 7.33391 4.54727 7.69186L6.32278 6.77122C6.192 6.519 6.13348 6.3422 6.11228 6.23087L4.1476 6.60509ZM4.5406 7.67875C4.71043 8.01842 4.95418 8.39831 5.25239 8.80984L6.87189 7.63629C6.60513 7.26816 6.4308 6.98703 6.32945 6.78432L4.5406 7.67875ZM5.25239 8.80984C5.58019 9.2622 6.02429 9.75516 6.56623 10.2853L7.96482 8.85565C7.46722 8.36887 7.10906 7.96358 6.87189 7.63629L5.25239 8.80984ZM6.55066 10.2697C7.08131 10.8123 7.57624 11.2581 8.03253 11.5906L9.21039 9.97422C8.87572 9.73034 8.46669 9.36838 7.9804 8.87123L6.55066 10.2697ZM8.03267 11.5907C8.44725 11.8927 8.82587 12.1389 9.15823 12.3086L10.0678 10.5274C9.86908 10.4259 9.58646 10.2482 9.21025 9.97412L8.03267 11.5907ZM9.15823 12.3086C9.4376 12.4512 9.74358 12.5877 10.0276 12.6443L10.4187 10.683C10.4317 10.6856 10.4089 10.6819 10.3382 10.6535C10.272 10.6268 10.1828 10.5861 10.0678 10.5274L9.15823 12.3086ZM10.0269 12.6442L10.2387 12.6866L10.6313 10.7255L10.4194 10.6831L10.0269 12.6442ZM10.435 12.706C10.636 12.706 10.8103 12.6463 10.8612 12.6294L10.2291 10.7319C10.2223 10.7341 10.2324 10.7304 10.2546 10.7253C10.2663 10.7226 10.2864 10.7183 10.313 10.7145C10.3382 10.7109 10.3808 10.706 10.435 10.706V12.706ZM10.8618 12.6292C10.972 12.5924 11.1795 12.5113 11.3625 12.3284L9.94825 10.9142C10.0231 10.8393 10.0941 10.7956 10.1368 10.7726C10.1808 10.7489 10.2142 10.7368 10.2285 10.7321L10.8618 12.6292ZM11.3686 12.3222L12.3347 11.3391L10.9082 9.9373L9.94212 10.9204L11.3686 12.3222ZM12.2855 11.3859C12.2951 11.3774 12.3015 11.3731 12.3044 11.3713C12.3059 11.3704 12.3069 11.3699 12.3073 11.3696C12.3078 11.3694 12.308 11.3694 12.308 11.3693C12.308 11.3693 12.3081 11.3693 12.3085 11.3692C12.3089 11.3691 12.3098 11.3689 12.3113 11.3686C12.3143 11.3681 12.3213 11.3671 12.3333 11.3671V9.36707C11.8161 9.36707 11.3429 9.54805 10.9573 9.89059L12.2855 11.3859ZM12.3333 11.3671C12.3724 11.3671 12.3839 11.3707 12.3749 11.3687C12.3651 11.3665 12.3273 11.3568 12.2763 11.3262L13.3056 9.61136C12.9816 9.4169 12.6287 9.36707 12.3333 9.36707V11.3671ZM12.7909 11.4688H12.8078V9.46876H12.7909V11.4688ZM12.2993 11.3298L15.5704 13.262L16.5876 11.5399L13.3164 9.60775L12.2993 11.3298ZM15.5525 13.2511C15.5864 13.2721 15.5824 13.2767 15.5659 13.2549C15.5576 13.244 15.5482 13.229 15.5397 13.2103C15.5312 13.1915 15.5255 13.173 15.5222 13.1566L17.4834 12.7641C17.3726 12.2104 17.0245 11.8103 16.6055 11.5508L15.5525 13.2511Z" fill="#EDE8C8" mask="url(#path-1-inside-1_288_78)"/>
</svg>
